HIERARCHY
ROOT Hips
{
	OFFSET 0.000000 0.000000 0.000000
	CHANNELS 6 Xposition Yposition Zposition Xrotation Yrotation Zrotation
	JOINT Spine
	{
		OFFSET 0.000000 0.044490 0.066735
		CHANNELS 3 Xrotation Yrotation Zrotation
		JOINT Spine1
		{
			OFFSET 0.000000 0.015451 0.087628
			CHANNELS 3 Xrotation Yrotation Zrotation
			JOINT Spine2
			{
				OFFSET 0.000000 0.007755 0.088641
				CHANNELS 3 Xrotation Yrotation Zrotation
				JOINT Spine3
				{
					OFFSET 0.000000 0.000000 0.088980
					CHANNELS 3 Xrotation Yrotation Zrotation
					JOINT Neck
					{
						OFFSET 0.000000 -0.033367 0.233572
						CHANNELS 3 Xrotation Yrotation Zrotation
						JOINT Head
						{
							OFFSET 0.000000 -0.021245 0.120488
							CHANNELS 3 Xrotation Yrotation Zrotation
							End Site
							{
								OFFSET 0.000000 0.000000 0.000000
							}
						}
					}
					JOINT RightShoulder
					{
						OFFSET -0.026917 -0.044862 0.145355
						CHANNELS 3 Xrotation Yrotation Zrotation
						JOINT RightArm
						{
							OFFSET -0.133690 0.000000 0.000000
							CHANNELS 3 Xrotation Yrotation Zrotation
							JOINT RightForeArm
							{
								OFFSET -0.257725 0.000000 0.000000
								CHANNELS 3 Xrotation Yrotation Zrotation
								JOINT RightHand
								{
									OFFSET -0.216749 0.000000 0.000000
									CHANNELS 3 Xrotation Yrotation Zrotation
									JOINT RightHandEnd
									{
										OFFSET -0.062518 0.000000 0.000000
										CHANNELS 3 Xrotation Yrotation Zrotation
										End Site
										{
											OFFSET 0.000000 0.000000 0.000000
										}
									}
									JOINT RightHandThumb1
									{
										OFFSET -0.025007 -0.041679 -0.016672
										CHANNELS 3 Xrotation Yrotation Zrotation
										End Site
										{
											OFFSET 0.000000 0.000000 0.000000
										}
									}
								}
							}
						}
					}
					JOINT LeftShoulder
					{
						OFFSET 0.026917 -0.044862 0.145355
						CHANNELS 3 Xrotation Yrotation Zrotation
						JOINT LeftArm
						{
							OFFSET 0.133690 0.000000 0.000000
							CHANNELS 3 Xrotation Yrotation Zrotation
							JOINT LeftForeArm
							{
								OFFSET 0.257725 0.000000 0.000000
								CHANNELS 3 Xrotation Yrotation Zrotation
								JOINT LeftHand
								{
									OFFSET 0.216749 0.000000 0.000000
									CHANNELS 3 Xrotation Yrotation Zrotation
									JOINT LeftHandEnd
									{
										OFFSET 0.062518 0.000000 0.000000
										CHANNELS 3 Xrotation Yrotation Zrotation
										End Site
										{
											OFFSET 0.000000 0.000000 0.000000
										}
									}
									JOINT LeftHandThumb1
									{
										OFFSET 0.025007 -0.041679 -0.016672
										CHANNELS 3 Xrotation Yrotation Zrotation
										End Site
										{
											OFFSET 0.000000 0.000000 0.000000
										}
									}
								}
							}
						}
					}
				}
			}
		}
	}
	JOINT RightUpLeg
	{
		OFFSET -0.079855 0.000000 -0.023329
		CHANNELS 3 Xrotation Yrotation Zrotation
		JOINT RightLeg
		{
			OFFSET 0.000000 0.000000 -0.366572
			CHANNELS 3 Xrotation Yrotation Zrotation
			JOINT RightFoot
			{
				OFFSET 0.000000 0.000000 -0.363650
				CHANNELS 3 Xrotation Yrotation Zrotation
				JOINT RightToeBase
				{
					OFFSET 0.000000 -0.114715 -0.041753
					CHANNELS 3 Xrotation Yrotation Zrotation
					End Site
					{
						OFFSET 0.000000 0.000000 0.000000
					}
				}
			}
		}
	}
	JOINT LeftUpLeg
	{
		OFFSET 0.079855 0.000000 -0.023329
		CHANNELS 3 Xrotation Yrotation Zrotation
		JOINT LeftLeg
		{
			OFFSET 0.000000 0.000000 -0.366572
			CHANNELS 3 Xrotation Yrotation Zrotation
			JOINT LeftFoot
			{
				OFFSET 0.000000 0.000000 -0.363650
				CHANNELS 3 Xrotation Yrotation Zrotation
				JOINT LeftToeBase
				{
					OFFSET 0.000000 -0.114715 -0.041753
					CHANNELS 3 Xrotation Yrotation Zrotation
					End Site
					{
						OFFSET 0.000000 0.000000 0.000000
					}
				}
			}
		}
	}
}
MOTION
Frames: 7
Frame Time: 0.033333
0.490111 -0.625013 0.806887 2.512000 -1.278600 -90.778300 -1.851500 -0.561400 0.165400 -1.771200 -0.945200 -0.116100 2.170400 0.405400 -0.808900 0.689800 0.116400 -0.302900 -4.047900 3.637300 -0.468200 1.107900 -2.132600 -3.088400 -1.128100 13.482200 4.043300 -10.857000 -3.770600 -3.089600 0.000000 0.000000 0.297700 0.077300 -0.253200 -4.780200 0.000000 0.000000 0.000000 0.000000 0.000000 0.000000 -0.785100 -13.791800 -3.582500 -3.576600 8.604200 13.449600 0.000000 0.000000 -10.210800 -10.592000 -3.450800 2.870500 0.000000 0.000000 0.000000 0.000000 0.000000 0.000000 1.889600 -1.288700 -7.209600 -2.722400 0.000000 0.000000 -3.570700 -4.001900 -10.173900 1.484600 0.000000 0.000000 0.263800 -4.900900 30.534000 2.053800 0.000000 0.000000 -3.202800 2.485300 -0.184900 1.020700 0.000000 0.000000 
0.490223 -0.625135 0.806884 2.510900 -1.279700 -90.780700 -1.856100 -0.576300 0.163300 -1.780800 -0.951500 -0.116800 2.195900 0.406300 -0.793000 0.694600 0.110600 -0.296000 -4.095300 3.669200 -0.360200 1.124800 -2.118300 -3.007100 -1.130600 13.516300 4.042200 -10.878400 -3.717700 -3.096600 0.000000 0.000000 0.276800 0.088200 -0.229100 -4.761100 0.000000 0.000000 0.000000 0.000000 0.000000 0.000000 -0.822000 -13.759000 -3.592900 -3.547200 8.611200 13.451900 0.000000 0.000000 -10.225200 -10.562000 -3.438500 2.817800 0.000000 0.000000 0.000000 0.000000 0.000000 0.000000 1.888700 -1.279800 -7.255800 -2.741800 0.000000 0.000000 -3.542500 -4.021700 -10.123100 1.460200 0.000000 0.000000 0.258800 -4.889300 30.536700 2.046000 0.000000 0.000000 -3.203200 2.459700 -0.198800 1.015100 0.000000 0.000000 
0.490431 -0.625356 0.806872 2.503600 -1.305300 -90.780800 -1.889400 -0.591700 0.160500 -1.815300 -0.961400 -0.119400 2.264200 0.398900 -0.769600 0.707200 0.101900 -0.285600 -4.173900 3.739900 -0.190400 1.151000 -2.062900 -2.899200 -1.191300 13.609600 4.083100 -10.869300 -3.673400 -3.168500 0.000000 0.000000 0.281900 0.109300 -0.194600 -4.730700 0.000000 0.000000 0.000000 0.000000 0.000000 0.000000 -0.860300 -13.688800 -3.594700 -3.516500 8.601700 13.435100 0.000000 0.000000 -10.247600 -10.549500 -3.431700 2.747800 0.000000 0.000000 0.000000 0.000000 0.000000 0.000000 1.863200 -1.260700 -7.331100 -2.777800 0.000000 0.000000 -3.494800 -4.075300 -10.058600 1.424900 0.000000 0.000000 0.219300 -4.865800 30.524700 2.041600 0.000000 0.000000 -3.199200 2.416100 -0.212300 0.990000 0.000000 0.000000 
0.490619 -0.625612 0.806864 2.489600 -1.318400 -90.777900 -1.915400 -0.592700 0.160000 -1.849300 -0.965300 -0.121800 2.339600 0.374900 -0.754500 0.721500 0.092400 -0.271600 -4.228500 3.817000 -0.046500 1.134700 -1.996100 -2.819700 -1.286300 13.742700 4.150300 -10.800900 -3.682600 -3.267600 0.000000 0.000000 0.311200 0.148500 -0.153000 -4.716600 0.000000 0.000000 0.000000 0.000000 0.000000 0.000000 -0.870700 -13.620600 -3.591300 -3.494000 8.594200 13.405000 0.000000 0.000000 -10.257100 -10.560800 -3.430800 2.688400 0.000000 0.000000 0.000000 0.000000 0.000000 0.000000 1.859400 -1.234000 -7.391800 -2.828100 0.000000 0.000000 -3.445400 -4.138900 -10.028200 1.401100 0.000000 0.000000 0.195200 -4.830600 30.514900 2.031800 0.000000 0.000000 -3.183900 2.389500 -0.226800 0.946000 0.000000 0.000000 
0.490789 -0.625866 0.806877 2.474100 -1.322600 -90.763700 -1.925800 -0.582100 0.160700 -1.863600 -0.962300 -0.123000 2.387200 0.355600 -0.759900 0.729300 0.086000 -0.266100 -4.249900 3.837700 0.017400 1.085700 -1.950900 -2.770100 -1.347900 13.820200 4.205100 -10.747300 -3.699600 -3.310300 0.000000 0.000000 0.328600 0.172900 -0.124200 -4.740600 0.000000 0.000000 0.000000 0.000000 0.000000 0.000000 -0.865300 -13.599700 -3.592800 -3.467100 8.611000 13.389400 0.000000 0.000000 -10.244700 -10.553700 -3.457400 2.650000 0.000000 0.000000 0.000000 0.000000 0.000000 0.000000 1.857400 -1.203500 -7.436600 -2.859600 0.000000 0.000000 -3.411800 -4.185100 -10.020300 1.398400 0.000000 0.000000 0.176000 -4.795100 30.510300 2.026400 0.000000 0.000000 -3.163300 2.380500 -0.249900 0.903800 0.000000 0.000000 
0.490954 -0.626128 0.806900 2.461400 -1.315300 -90.728300 -1.915500 -0.572600 0.160500 -1.857000 -0.954900 -0.122800 2.404000 0.359800 -0.785600 0.729600 0.084600 -0.275400 -4.267300 3.784800 0.022500 1.049400 -1.928600 -2.718800 -1.354400 13.803200 4.242900 -10.756100 -3.684400 -3.293200 0.000000 0.000000 0.330800 0.148800 -0.126500 -4.786600 0.000000 0.000000 0.000000 0.000000 0.000000 0.000000 -0.865800 -13.635100 -3.603700 -3.463400 8.649600 13.403200 0.000000 0.000000 -10.229800 -10.538500 -3.516400 2.636700 0.000000 0.000000 0.000000 0.000000 0.000000 0.000000 1.855400 -1.169900 -7.487100 -2.861100 0.000000 0.000000 -3.397300 -4.217000 -10.006100 1.401600 0.000000 0.000000 0.163300 -4.763200 30.506900 2.023800 0.000000 0.000000 -3.149900 2.361600 -0.289000 0.888400 0.000000 0.000000 
0.491112 -0.626417 0.806907 2.453700 -1.306200 -90.671200 -1.899600 -0.564800 0.158500 -1.847100 -0.945000 -0.123000 2.414100 0.368300 -0.816700 0.727700 0.082200 -0.286400 -4.300600 3.719800 0.012700 1.038400 -1.917000 -2.668700 -1.355200 13.768100 4.293700 -10.742600 -3.685200 -3.299700 0.000000 0.000000 0.349000 0.110600 -0.135600 -4.806100 0.000000 0.000000 0.000000 0.000000 0.000000 0.000000 -0.876100 -13.682400 -3.625700 -3.531800 8.682200 13.430100 0.000000 0.000000 -10.239100 -10.580700 -3.568700 2.655300 0.000000 0.000000 0.000000 0.000000 0.000000 0.000000 1.849500 -1.137600 -7.541100 -2.844800 0.000000 0.000000 -3.395800 -4.248500 -10.003000 1.392700 0.000000 0.000000 0.148600 -4.735300 30.498000 2.024800 0.000000 0.000000 -3.153700 2.324600 -0.333000 0.905900 0.000000 0.000000 
